<svg width="104" height="13" viewBox="0 0 104 13" fill="none" xmlns="http://www.w3.org/2000/svg">
<path d="M3.10754 4.76958C3.10754 5.16705 3.19741 5.51152 3.37714 5.803C3.55688 6.09447 3.80283 6.32412 4.11501 6.49193C4.42718 6.65092 4.77246 6.73041 5.15085 6.73041C5.56708 6.73041 5.93128 6.65975 6.24346 6.51843C6.55563 6.36828 6.81104 6.17838 7.0097 5.94873V7.06164C6.76375 7.24712 6.49414 7.39286 6.20089 7.49885C5.90764 7.59601 5.54343 7.64458 5.10828 7.64458C4.53124 7.64458 4.00622 7.52535 3.53323 7.28687C3.0697 7.03955 2.70077 6.6995 2.42643 6.26671C2.1521 5.82508 2.01493 5.32604 2.01493 4.76958C2.01493 4.2043 2.1521 3.70526 2.42643 3.27247C2.70077 2.83967 3.0697 2.50403 3.53323 2.26555C4.00622 2.01824 4.53124 1.89459 5.10828 1.89459C5.54343 1.89459 5.90764 1.94758 6.20089 2.05357C6.49414 2.15073 6.76375 2.29205 7.0097 2.47753V3.59044C6.81104 3.36079 6.55563 3.17531 6.24346 3.03399C5.93128 2.88383 5.56708 2.80876 5.15085 2.80876C4.77246 2.80876 4.42718 2.89267 4.11501 3.06048C3.80283 3.21947 3.55688 3.4447 3.37714 3.73617C3.19741 4.02765 3.10754 4.37212 3.10754 4.76958ZM0.780432 4.76958C0.780432 5.36137 0.88922 5.90899 1.10679 6.41244C1.32437 6.90707 1.62708 7.33986 2.01493 7.71083C2.41224 8.0818 2.87104 8.36886 3.39133 8.572C3.92108 8.77515 4.4934 8.87673 5.10828 8.87673C5.72317 8.87673 6.29076 8.77515 6.81105 8.572C7.34079 8.36886 7.79959 8.0818 8.18744 7.71083C8.58475 7.33986 8.8922 6.90707 9.10977 6.41244C9.32735 5.90899 9.43614 5.36137 9.43614 4.76958C9.43614 4.1778 9.32735 3.6346 9.10977 3.13998C8.8922 2.63652 8.58475 2.19931 8.18744 1.82834C7.79959 1.45737 7.34079 1.17032 6.81105 0.967166C6.29076 0.764017 5.72317 0.662443 5.10828 0.662443C4.4934 0.662443 3.92108 0.764017 3.39133 0.967166C2.87104 1.17032 2.41224 1.45737 2.01493 1.82834C1.62708 2.19931 1.32437 2.63652 1.10679 3.13998C0.88922 3.6346 0.780432 4.1778 0.780432 4.76958ZM0 4.76958C0 4.08064 0.127707 3.4447 0.383121 2.86175C0.647995 2.2788 1.00747 1.77535 1.46154 1.35138C1.92507 0.918587 2.469 0.587366 3.09335 0.357719C3.71769 0.11924 4.38934 0 5.10828 0C5.83669 0 6.50833 0.11924 7.12322 0.357719C7.74756 0.587366 8.28677 0.918587 8.74084 1.35138C9.20437 1.77535 9.56384 2.2788 9.81926 2.86175C10.0841 3.4447 10.2166 4.08064 10.2166 4.76958C10.2166 5.45852 10.0841 6.09447 9.81926 6.67742C9.56384 7.26037 9.20437 7.76824 8.74084 8.20104C8.28677 8.625 7.74756 8.95622 7.12322 9.1947C6.50833 9.42435 5.83669 9.53917 5.10828 9.53917C4.38934 9.53917 3.71769 9.42435 3.09335 9.1947C2.469 8.95622 1.92507 8.625 1.46154 8.20104C1.00747 7.76824 0.647995 7.26037 0.383121 6.67742C0.127707 6.09447 0 5.45852 0 4.76958Z" fill="black"/>
<path d="M23.8569 10.1025H21.2601L19.3924 7.60557L18.4286 8.64428V10.1025H16.3462V0H18.4286V5.61304L20.8506 2.88642H23.752L20.8057 6.06248L23.8519 10.1025H23.8569Z" fill="black"/>
<path d="M28.4706 2.88652H30.543V10.1026H28.4706V9.55325C28.151 9.79295 27.7964 9.97773 27.4119 10.1076C27.0274 10.2374 26.6429 10.3023 26.2533 10.3023C25.4943 10.3023 24.8401 10.1375 24.2908 9.81293C23.7415 9.48833 23.322 9.0339 23.0273 8.4646C22.7377 7.89031 22.5879 7.24112 22.5879 6.50703C22.5879 5.77294 22.7327 5.11875 23.0273 4.53947C23.317 3.95519 23.7415 3.50076 24.2908 3.17616C24.8401 2.85156 25.4943 2.68677 26.2533 2.68677C26.6529 2.68677 27.0424 2.75668 27.4169 2.88652C27.7964 3.02135 28.146 3.21112 28.4656 3.45082V2.88652H28.4706ZM27.9013 7.8204C28.2708 7.47583 28.4556 7.02639 28.4556 6.47707C28.4556 5.92775 28.2708 5.51326 27.9013 5.17868C27.5318 4.84409 27.0773 4.6743 26.533 4.6743C25.9887 4.6743 25.5442 4.84409 25.1897 5.17868C24.8401 5.51326 24.6653 5.95771 24.6653 6.50703C24.6653 7.05635 24.8401 7.4958 25.1897 7.83538C25.5392 8.16997 25.9887 8.33976 26.533 8.33976C27.0773 8.33976 27.5318 8.16497 27.9013 7.8204Z" fill="black"/>
<path d="M40.7205 2.9563C41.16 3.14107 41.5295 3.46067 41.8441 3.9251C42.1537 4.38453 42.3085 5.00875 42.3085 5.78779V10.1024H40.2411V5.78779C40.2411 5.32836 40.1113 4.99377 39.8466 4.79402C39.5869 4.59427 39.2723 4.4894 38.9127 4.4894C38.6131 4.4894 38.3534 4.57929 38.1337 4.75407C37.914 4.93385 37.7742 5.20851 37.7042 5.58304V10.1024H35.6218V5.78779C35.6218 5.32836 35.492 4.99377 35.2273 4.79402C34.9676 4.59427 34.653 4.4894 34.2935 4.4894C33.9938 4.4894 33.7292 4.57929 33.5045 4.76406C33.2797 4.94883 33.1399 5.23847 33.08 5.64297V10.1024H30.9976V2.88639H33.08V3.34582C33.6143 2.90137 34.1936 2.68164 34.8128 2.68164C35.2423 2.68164 35.6768 2.77153 36.1162 2.9563C36.5607 3.14107 36.9202 3.4407 37.1999 3.86517C37.4546 3.53059 37.7742 3.24594 38.1637 3.02122C38.5532 2.7965 38.9677 2.68164 39.4171 2.68164C39.8666 2.68164 40.2761 2.77153 40.7155 2.9563H40.7205Z" fill="black"/>
<path d="M47.3475 2.88647H49.5198L47.0728 10.0026C46.6633 11.0414 46.114 11.8154 45.4198 12.3248C44.7257 12.8341 43.8967 13.0539 42.9329 12.9889V10.9964C42.9929 11.0064 43.0778 11.0114 43.1976 11.0114C43.6071 11.0114 43.9467 10.9065 44.2163 10.6918C44.486 10.4821 44.7157 10.1874 44.9005 9.81288L41.7544 2.88647H44.0016L45.9092 7.02634L47.3524 2.88647H47.3475Z" fill="black"/>
<path d="M53.0304 10.6018C52.2813 10.6018 51.5822 10.4171 50.953 10.0525C50.3237 9.68798 49.8194 9.1836 49.4498 8.55938C49.0803 7.93016 48.8955 7.24101 48.8955 6.51191C48.8955 5.78282 49.0853 5.07869 49.4548 4.45447C49.8244 3.83523 50.3287 3.33086 50.9579 2.96631C51.5872 2.60176 52.2863 2.41699 53.0354 2.41699C53.7844 2.41699 54.4686 2.60176 55.0978 2.96631C55.727 3.33086 56.2314 3.83024 56.6009 4.45447C56.9705 5.07869 57.1603 5.77283 57.1603 6.51191C57.1603 7.251 56.9755 7.93016 56.6059 8.55938C56.2364 9.1886 55.732 9.68798 55.1028 10.0525C54.4736 10.4171 53.7794 10.6018 53.0404 10.6018H53.0304ZM53.0304 2.98129C52.3862 2.98129 51.7869 3.1411 51.2426 3.4557C50.6983 3.77031 50.2638 4.20478 49.9442 4.73911C49.6296 5.27345 49.4648 5.86771 49.4648 6.50692C49.4648 7.14613 49.6246 7.7304 49.9442 8.26973C50.2638 8.81406 50.6983 9.24353 51.2426 9.55814C51.7819 9.87275 52.3862 10.0325 53.0304 10.0325C53.6746 10.0325 54.2589 9.87275 54.8032 9.55814C55.3425 9.24353 55.782 8.80907 56.1016 8.26973C56.4212 7.7304 56.581 7.13614 56.581 6.50692C56.581 5.8777 56.4212 5.27345 56.1016 4.73911C55.782 4.20478 55.3475 3.77031 54.8032 3.4557C54.2639 3.1411 53.6696 2.98129 53.0304 2.98129ZM53.0154 8.5394C52.4511 8.5394 51.9667 8.33965 51.5672 7.94514C51.1677 7.55063 50.9679 7.06623 50.9679 6.51191C50.9679 5.9576 51.1677 5.46821 51.5672 5.0687C51.9667 4.6692 52.4561 4.46445 53.0204 4.46445C53.5847 4.46445 54.0741 4.6692 54.4786 5.0687C54.8831 5.46821 55.0878 5.95261 55.0878 6.51191C55.0878 7.07122 54.8831 7.55562 54.4786 7.95013C54.0741 8.34464 53.5847 8.54439 53.0254 8.54439L53.0154 8.5394ZM53.0154 5.03375C52.6059 5.03375 52.2663 5.17357 51.9767 5.46821C51.6821 5.76284 51.5422 6.10242 51.5422 6.50692C51.5422 6.91142 51.6821 7.251 51.9767 7.54064C52.2663 7.83028 52.6109 7.97011 53.0204 7.97011C53.4299 7.97011 53.7745 7.83028 54.0741 7.54064C54.3687 7.251 54.5135 6.91641 54.5135 6.51191C54.5135 6.10742 54.3687 5.76784 54.0741 5.4732C53.7794 5.17857 53.4349 5.03874 53.0254 5.03874L53.0154 5.03375Z" fill="black"/>
<path d="M61.545 10.5821C60.796 10.5821 60.0968 10.3973 59.4676 10.0327C58.8384 9.6682 58.334 9.16383 57.9645 8.5396C57.5949 7.91038 57.4102 7.22123 57.4102 6.49214C57.4102 5.76304 57.5999 5.05891 57.9695 4.43469C58.339 3.81546 58.8434 3.31108 59.4726 2.94653C60.1018 2.58199 60.801 2.39722 61.55 2.39722C62.2991 2.39722 62.9833 2.58199 63.6125 2.94653C64.2417 3.31108 64.7461 3.81046 65.1156 4.43469C65.4851 5.05891 65.6749 5.75305 65.6749 6.49214C65.6749 7.23122 65.4901 7.91038 65.1206 8.5396C64.7511 9.16882 64.2467 9.6682 63.6175 10.0327C62.9882 10.3973 62.2941 10.5821 61.555 10.5821H61.545ZM61.545 2.96152C60.9008 2.96152 60.3016 3.12132 59.7573 3.43593C59.2129 3.75054 58.7785 4.185 58.4589 4.71934C58.1442 5.25367 57.9794 5.84794 57.9794 6.48714C57.9794 7.12635 58.1393 7.71063 58.4589 8.24996C58.7785 8.79428 59.2129 9.22375 59.7573 9.53836C60.2966 9.85297 60.9008 10.0128 61.545 10.0128C62.1892 10.0128 62.7735 9.85297 63.3178 9.53836C63.8572 9.22375 64.2966 8.78929 64.6162 8.24996C64.9358 7.71063 65.0956 7.11636 65.0956 6.48714C65.0956 5.85792 64.9358 5.25367 64.6162 4.71934C64.2966 4.185 63.8622 3.75054 63.3178 3.43593C62.7785 3.12132 62.1792 2.96152 61.545 2.96152ZM61.53 8.51463C60.9657 8.51463 60.4814 8.31488 60.0818 7.92037C59.6823 7.52586 59.4826 7.04146 59.4826 6.48714C59.4826 5.93283 59.6823 5.44344 60.0818 5.04393C60.4814 4.64443 60.9707 4.43968 61.535 4.43968C62.0993 4.43968 62.5887 4.64443 62.9932 5.04393C63.3977 5.44344 63.6025 5.92784 63.6025 6.48714C63.6025 7.04645 63.3977 7.53085 62.9932 7.92536C62.5887 8.31987 62.0993 8.51962 61.54 8.51962L61.53 8.51463ZM61.53 5.00898C61.1206 5.00898 60.781 5.1488 60.4863 5.44344C60.1917 5.73807 60.0519 6.07765 60.0519 6.48215C60.0519 6.88665 60.1917 7.22623 60.4863 7.51587C60.776 7.80551 61.1206 7.94533 61.53 7.94533C61.9395 7.94533 62.2841 7.80551 62.5837 7.51587C62.8784 7.22623 63.0232 6.89164 63.0232 6.48714C63.0232 6.08265 62.8784 5.74307 62.5837 5.44843C62.2891 5.1538 61.9445 5.01397 61.535 5.01397L61.53 5.00898Z" fill="black"/>
<path d="M71.0981 2.97144C71.5326 3.15621 71.9071 3.47581 72.2217 3.94024C72.5313 4.39967 72.6861 5.02389 72.6861 5.80293V10.1176H70.6037V5.80293C70.6037 5.3435 70.4739 5.00891 70.2192 4.80916C69.9595 4.6094 69.6549 4.50453 69.2953 4.50453C68.9358 4.50453 68.6362 4.62938 68.4014 4.87907C68.1617 5.12876 68.0419 5.52827 68.0419 6.07758V10.1176H65.9595V2.90152H68.0419V3.39092C68.5962 2.93149 69.1855 2.69678 69.8047 2.69678C70.2342 2.69678 70.6636 2.78667 71.1031 2.97144H71.0981Z" fill="black"/>
<path d="M102.086 10.1677V6.16801C102.086 5.66471 101.928 5.24996 101.611 4.92376C101.294 4.59755 100.884 4.43444 100.38 4.43444C100.045 4.43444 99.7467 4.50901 99.4857 4.65813C99.2248 4.80725 99.0197 5.0123 98.8706 5.27326C98.7215 5.53423 98.6469 5.83248 98.6469 6.16801L98.1296 5.87442C98.1296 5.37113 98.2415 4.92376 98.4652 4.53231C98.6888 4.14086 99.0011 3.83329 99.4018 3.6096C99.8026 3.3766 100.255 3.26009 100.758 3.26009C101.261 3.26009 101.704 3.37194 102.086 3.59562C102.478 3.81931 102.785 4.13154 103.009 4.53231C103.232 4.93308 103.344 5.39443 103.344 5.91636V10.1677H102.086ZM97.3887 10.1677V0.0585938H98.6469V10.1677H97.3887Z" fill="black"/>
<path d="M93.5819 10.18C92.9295 10.18 92.3376 10.0263 91.8064 9.71869C91.2844 9.41112 90.8697 8.99637 90.5621 8.47444C90.2639 7.94318 90.1147 7.35601 90.1147 6.71291C90.1147 6.0605 90.2639 5.47332 90.5621 4.95139C90.8697 4.42946 91.2844 4.01936 91.8064 3.72112C92.3376 3.41355 92.9295 3.25977 93.5819 3.25977C94.0945 3.25977 94.5698 3.35763 95.0079 3.55335C95.4459 3.73976 95.8234 4.0147 96.1403 4.37819L95.3015 5.21701C95.0964 4.97469 94.8448 4.79294 94.5465 4.67178C94.2576 4.5413 93.936 4.47606 93.5819 4.47606C93.1625 4.47606 92.7897 4.57392 92.4634 4.76964C92.1372 4.95605 91.8809 5.21701 91.6945 5.55254C91.5081 5.88807 91.4149 6.27486 91.4149 6.71291C91.4149 7.15096 91.5081 7.53775 91.6945 7.87328C91.8809 8.20881 92.1372 8.47444 92.4634 8.67016C92.7897 8.86589 93.1625 8.96375 93.5819 8.96375C93.936 8.96375 94.2576 8.90317 94.5465 8.782C94.8448 8.65152 95.1011 8.46512 95.3154 8.22279L96.1403 9.06161C95.8327 9.41578 95.4552 9.69073 95.0079 9.88645C94.5698 10.0822 94.0945 10.18 93.5819 10.18Z" fill="black"/>
<path d="M86.1287 10.18C85.467 10.18 84.8705 10.0309 84.3392 9.73267C83.808 9.4251 83.3885 9.01035 83.081 8.48842C82.7734 7.96648 82.6196 7.37465 82.6196 6.71291C82.6196 6.0605 82.7688 5.47332 83.067 4.95139C83.3746 4.42946 83.7847 4.01936 84.2973 3.72112C84.8192 3.41355 85.4017 3.25977 86.0448 3.25977C86.66 3.25977 87.2005 3.39957 87.6665 3.67918C88.1419 3.95878 88.51 4.34557 88.771 4.83955C89.0413 5.33352 89.1764 5.89273 89.1764 6.51719C89.1764 6.61039 89.1718 6.71291 89.1624 6.82475C89.1531 6.92728 89.1345 7.04844 89.1065 7.18824H83.5004V6.13972H88.4355L87.9741 6.54515C87.9741 6.09778 87.8949 5.72031 87.7364 5.41274C87.578 5.09585 87.3543 4.85353 87.0654 4.68576C86.7765 4.50868 86.4269 4.42013 86.0169 4.42013C85.5881 4.42013 85.2107 4.51334 84.8844 4.69974C84.5582 4.88615 84.3066 5.14711 84.1295 5.48264C83.9524 5.81817 83.8639 6.21428 83.8639 6.67097C83.8639 7.13698 83.9571 7.54707 84.1435 7.90124C84.3299 8.24609 84.5955 8.51638 84.9404 8.7121C85.2852 8.89851 85.6813 8.99171 86.1287 8.99171C86.5015 8.99171 86.8417 8.92647 87.1493 8.79598C87.4662 8.6655 87.7364 8.46978 87.9601 8.20881L88.771 9.03365C88.4541 9.40646 88.0626 9.69073 87.5966 9.88645C87.1399 10.0822 86.6506 10.18 86.1287 10.18Z" fill="black"/>
<path d="M79.1318 10.1673V0.617432H80.39V10.1673H79.1318ZM77.4961 4.54591V3.39952H82.0257V4.54591H77.4961Z" fill="black"/>
<path d="M75.6929 10.1801C75.4319 10.1801 75.2129 10.0915 75.0358 9.91443C74.8681 9.72803 74.7842 9.509 74.7842 9.25735C74.7842 8.99639 74.8681 8.78202 75.0358 8.61426C75.2129 8.43717 75.4319 8.34863 75.6929 8.34863C75.9539 8.34863 76.1682 8.43717 76.336 8.61426C76.5131 8.78202 76.6016 8.99639 76.6016 9.25735C76.6016 9.509 76.5131 9.72803 76.336 9.91443C76.1682 10.0915 75.9539 10.1801 75.6929 10.1801Z" fill="black"/>
</svg>
