<svg width="134" height="20" viewBox="0 0 134 20" fill="none" xmlns="http://www.w3.org/2000/svg">
<path d="M11.5549 15.5423H7.55987L4.68651 11.7009L3.20373 13.2989V15.5423H0V0H3.20373V8.63546L6.92988 4.44065H11.3936L6.86073 9.32691L11.5472 15.5423H11.5549Z" fill="black"/>
<path d="M18.6534 4.44092H21.8417V15.5425H18.6534V14.6974C18.1617 15.0662 17.6162 15.3505 17.0246 15.5502C16.433 15.75 15.8415 15.8499 15.2422 15.8499C14.0744 15.8499 13.068 15.5963 12.2229 15.0969C11.3778 14.5976 10.7324 13.8984 10.2791 13.0226C9.83351 12.1391 9.60303 11.1403 9.60303 10.0109C9.60303 8.88157 9.82583 7.87512 10.2791 6.98392C10.7247 6.08503 11.3778 5.3859 12.2229 4.88652C13.068 4.38714 14.0744 4.13361 15.2422 4.13361C15.8568 4.13361 16.4561 4.24117 17.0323 4.44092C17.6162 4.64835 18.154 4.9403 18.6457 5.30907V4.44092H18.6534ZM17.7775 12.0315C18.346 11.5014 18.6303 10.8099 18.6303 9.96484C18.6303 9.11974 18.346 8.48207 17.7775 7.96732C17.209 7.45257 16.5099 7.19136 15.6724 7.19136C14.835 7.19136 14.1512 7.45257 13.6058 7.96732C13.068 8.48207 12.7991 9.16583 12.7991 10.0109C12.7991 10.856 13.068 11.5321 13.6058 12.0546C14.1436 12.5693 14.835 12.8305 15.6724 12.8305C16.5099 12.8305 17.209 12.5616 17.7775 12.0315Z" fill="black"/>
<path d="M37.4994 4.54814C38.1755 4.8324 38.744 5.3241 39.228 6.0386C39.7044 6.74542 39.9425 7.70577 39.9425 8.90428V15.5422H36.7619V8.90428C36.7619 8.19746 36.5621 7.68272 36.1549 7.37541C35.7554 7.0681 35.2714 6.90676 34.7182 6.90676C34.2573 6.90676 33.8578 7.04505 33.5197 7.31394C33.1817 7.59052 32.9666 8.01308 32.859 8.58929V15.5422H29.6553V8.90428C29.6553 8.19746 29.4555 7.68272 29.0483 7.37541C28.6488 7.0681 28.1648 6.90676 27.6117 6.90676C27.1507 6.90676 26.7435 7.04505 26.3978 7.32931C26.0521 7.61357 25.8369 8.05918 25.7447 8.68148V15.5422H22.541V4.44058H25.7447V5.1474C26.5668 4.46363 27.458 4.12559 28.4107 4.12559C29.0714 4.12559 29.7398 4.26388 30.4159 4.54814C31.0996 4.8324 31.6528 5.29337 32.0831 5.94641C32.4749 5.43166 32.9666 4.99374 33.5658 4.64802C34.1651 4.30229 34.8027 4.12559 35.4942 4.12559C36.1856 4.12559 36.8156 4.26388 37.4917 4.54814H37.4994Z" fill="black"/>
<path d="M47.6951 4.44065H51.0371L47.2725 15.3886C46.6425 16.9866 45.7974 18.1775 44.7295 18.9611C43.6616 19.7448 42.3862 20.0828 40.9035 19.9829V16.9175C40.9957 16.9329 41.1263 16.9405 41.3107 16.9405C41.9406 16.9405 42.4631 16.7792 42.8779 16.4488C43.2928 16.1262 43.6462 15.6729 43.9305 15.0967L39.0903 4.44065H42.5476L45.4824 10.8097L47.7027 4.44065H47.6951Z" fill="black"/>
<path d="M56.4375 16.3109C55.2851 16.3109 54.2095 16.0266 53.2415 15.4658C52.2734 14.9049 51.4975 14.1289 50.929 13.1686C50.3604 12.2006 50.0762 11.1403 50.0762 10.0187C50.0762 8.89697 50.3681 7.81369 50.9366 6.85334C51.5052 5.90068 52.2811 5.12472 53.2492 4.56387C54.2172 4.00303 55.2928 3.71877 56.4452 3.71877C57.5976 3.71877 58.6502 4.00303 59.6182 4.56387C60.5862 5.12472 61.3622 5.893 61.9307 6.85334C62.4992 7.81369 62.7912 8.8816 62.7912 10.0187C62.7912 11.1557 62.5069 12.2006 61.9384 13.1686C61.3699 14.1366 60.5939 14.9049 59.6259 15.4658C58.6578 16.0266 57.5899 16.3109 56.4529 16.3109H56.4375ZM56.4375 4.58692C55.4464 4.58692 54.5245 4.83277 53.6871 5.31679C52.8497 5.8008 52.1812 6.4692 51.6896 7.29126C51.2055 8.11332 50.952 9.02758 50.952 10.011C50.952 10.9944 51.1979 11.8933 51.6896 12.723C52.1812 13.5604 52.8497 14.2211 53.6871 14.7052C54.5168 15.1892 55.4464 15.435 56.4375 15.435C57.4286 15.435 58.3275 15.1892 59.1649 14.7052C59.9947 14.2211 60.6707 13.5527 61.1624 12.723C61.6541 11.8933 61.9 10.979 61.9 10.011C61.9 9.04294 61.6541 8.11332 61.1624 7.29126C60.6707 6.4692 60.0023 5.8008 59.1649 5.31679C58.3352 4.83277 57.4209 4.58692 56.4375 4.58692ZM56.4145 13.1379C55.5463 13.1379 54.8011 12.8306 54.1865 12.2236C53.5718 11.6167 53.2645 10.8714 53.2645 10.0187C53.2645 9.16586 53.5718 8.41295 54.1865 7.79833C54.8011 7.1837 55.554 6.86871 56.4222 6.86871C57.2903 6.86871 58.0432 7.1837 58.6655 7.79833C59.2878 8.41295 59.6028 9.15818 59.6028 10.0187C59.6028 10.8791 59.2878 11.6244 58.6655 12.2313C58.0432 12.8382 57.2903 13.1455 56.4298 13.1455L56.4145 13.1379ZM56.4145 7.74455C55.7845 7.74455 55.2621 7.95967 54.8165 8.41295C54.3632 8.86623 54.148 9.38867 54.148 10.011C54.148 10.6333 54.3632 11.1557 54.8165 11.6013C55.2621 12.0469 55.7922 12.262 56.4222 12.262C57.0521 12.262 57.5823 12.0469 58.0432 11.6013C58.4965 11.1557 58.7193 10.641 58.7193 10.0187C58.7193 9.39635 58.4965 8.87392 58.0432 8.42063C57.5899 7.96735 57.0598 7.75223 56.4298 7.75223L56.4145 7.74455Z" fill="black"/>
<path d="M69.5371 16.28C68.3847 16.28 67.3091 15.9957 66.3411 15.4349C65.3731 14.8741 64.5971 14.0981 64.0286 13.1377C63.46 12.1697 63.1758 11.1095 63.1758 9.9878C63.1758 8.86611 63.4677 7.78284 64.0363 6.82249C64.6048 5.86982 65.3807 5.09386 66.3488 4.53302C67.3168 3.97217 68.3924 3.68791 69.5448 3.68791C70.6972 3.68791 71.7498 3.97217 72.7178 4.53302C73.6858 5.09386 74.4618 5.86214 75.0303 6.82249C75.5989 7.78284 75.8908 8.85074 75.8908 9.9878C75.8908 11.1248 75.6065 12.1697 75.038 13.1377C74.4695 14.1058 73.6935 14.8741 72.7255 15.4349C71.7575 15.9957 70.6896 16.28 69.5525 16.28H69.5371ZM69.5371 4.55607C68.5461 4.55607 67.6241 4.80191 66.7867 5.28593C65.9493 5.76995 65.2809 6.43835 64.7892 7.26041C64.3052 8.08247 64.0516 8.99672 64.0516 9.98012C64.0516 10.9635 64.2975 11.8624 64.7892 12.6921C65.2809 13.5296 65.9493 14.1903 66.7867 14.6743C67.6164 15.1583 68.5461 15.4042 69.5371 15.4042C70.5282 15.4042 71.4271 15.1583 72.2645 14.6743C73.0943 14.1903 73.7704 13.5219 74.2621 12.6921C74.7538 11.8624 74.9996 10.9481 74.9996 9.98012C74.9996 9.01208 74.7538 8.08247 74.2621 7.26041C73.7704 6.43835 73.1019 5.76995 72.2645 5.28593C71.4348 4.80191 70.5129 4.55607 69.5371 4.55607ZM69.5141 13.0993C68.6459 13.0993 67.9007 12.792 67.2861 12.1851C66.6715 11.5781 66.3641 10.8329 66.3641 9.98012C66.3641 9.12733 66.6715 8.37441 67.2861 7.75979C67.9007 7.14517 68.6536 6.83017 69.5218 6.83017C70.3899 6.83017 71.1428 7.14517 71.7651 7.75979C72.3875 8.37441 72.7024 9.11964 72.7024 9.98012C72.7024 10.8406 72.3875 11.5858 71.7651 12.1928C71.1428 12.7997 70.3899 13.107 69.5295 13.107L69.5141 13.0993ZM69.5141 7.70601C68.8841 7.70601 68.3617 7.92113 67.9084 8.37441C67.4551 8.8277 67.24 9.35013 67.24 9.97243C67.24 10.5947 67.4551 11.1172 67.9084 11.5628C68.354 12.0084 68.8841 12.2235 69.5141 12.2235C70.1441 12.2235 70.6742 12.0084 71.1352 11.5628C71.5884 11.1172 71.8112 10.6024 71.8112 9.98012C71.8112 9.35781 71.5884 8.83538 71.1352 8.38209C70.6819 7.92881 70.1518 7.71369 69.5218 7.71369L69.5141 7.70601Z" fill="black"/>
<path d="M84.2337 4.57149C84.9021 4.85575 85.4783 5.34745 85.9623 6.06195C86.4387 6.76877 86.6768 7.72911 86.6768 8.92763V15.5656H83.4731V8.92763C83.4731 8.22081 83.2734 7.70606 82.8815 7.39875C82.482 7.09144 82.0134 6.9301 81.4602 6.9301C80.9071 6.9301 80.4461 7.12217 80.085 7.50631C79.7162 7.89045 79.5318 8.50507 79.5318 9.35018V15.5656H76.3281V4.46393H79.5318V5.21684C80.3846 4.51002 81.2912 4.14893 82.2439 4.14893C82.9046 4.14893 83.5653 4.28722 84.2414 4.57149H84.2337Z" fill="black"/>
<path d="M131.907 15.6424V9.48905C131.907 8.71475 131.664 8.07668 131.176 7.57482C130.689 7.07296 130.058 6.82203 129.283 6.82203C128.767 6.82203 128.308 6.93674 127.907 7.16616C127.505 7.39558 127.19 7.71104 126.961 8.11252C126.731 8.51401 126.616 8.97285 126.616 9.48905L125.821 9.03738C125.821 8.26308 125.993 7.57482 126.337 6.97259C126.681 6.37035 127.161 5.89717 127.778 5.55304C128.394 5.19457 129.09 5.01533 129.864 5.01533C130.638 5.01533 131.32 5.1874 131.907 5.53153C132.51 5.87566 132.983 6.35602 133.327 6.97259C133.671 7.58916 133.843 8.29893 133.843 9.1019V15.6424H131.907ZM124.681 15.6424V0.0899429H126.616V15.6424H124.681Z" fill="black"/>
<path d="M118.824 15.6619C117.821 15.6619 116.91 15.4253 116.093 14.9522C115.29 14.479 114.652 13.8409 114.178 13.0379C113.72 12.2206 113.49 11.3173 113.49 10.3279C113.49 9.32416 113.72 8.42081 114.178 7.61783C114.652 6.81486 115.29 6.18395 116.093 5.72511C116.91 5.25193 117.821 5.01534 118.824 5.01534C119.613 5.01534 120.344 5.16589 121.018 5.46701C121.692 5.75379 122.273 6.17678 122.76 6.736L121.47 8.02649C121.154 7.65368 120.767 7.37407 120.308 7.18767C119.864 6.98693 119.369 6.88655 118.824 6.88655C118.179 6.88655 117.605 7.03711 117.104 7.33823C116.602 7.625 116.207 8.02649 115.921 8.54269C115.634 9.05889 115.491 9.65395 115.491 10.3279C115.491 11.0018 115.634 11.5969 115.921 12.1131C116.207 12.6293 116.602 13.0379 117.104 13.339C117.605 13.6401 118.179 13.7907 118.824 13.7907C119.369 13.7907 119.864 13.6975 120.308 13.5111C120.767 13.3104 121.162 13.0236 121.491 12.6508L122.76 13.9413C122.287 14.4861 121.706 14.9091 121.018 15.2102C120.344 15.5114 119.613 15.6619 118.824 15.6619Z" fill="black"/>
<path d="M107.358 15.6619C106.339 15.6619 105.422 15.4325 104.604 14.9737C103.787 14.5005 103.142 13.8624 102.669 13.0594C102.196 12.2564 101.959 11.3459 101.959 10.3279C101.959 9.32416 102.188 8.42081 102.647 7.61783C103.12 6.81486 103.751 6.18395 104.54 5.72511C105.343 5.25193 106.239 5.01534 107.229 5.01534C108.175 5.01534 109.007 5.23042 109.723 5.66058C110.455 6.09075 111.021 6.68581 111.423 7.44577C111.838 8.20573 112.046 9.06606 112.046 10.0268C112.046 10.1701 112.039 10.3279 112.025 10.4999C112.011 10.6577 111.982 10.8441 111.939 11.0592H103.314V9.44604H110.906L110.197 10.0698C110.197 9.38151 110.075 8.80079 109.831 8.32761C109.587 7.84009 109.243 7.46728 108.799 7.20918C108.354 6.93674 107.816 6.80052 107.185 6.80052C106.526 6.80052 105.945 6.94391 105.443 7.23069C104.941 7.51746 104.554 7.91895 104.282 8.43515C104.009 8.95135 103.873 9.56075 103.873 10.2634C103.873 10.9803 104.017 11.6112 104.303 12.1561C104.59 12.6866 104.999 13.1024 105.529 13.4036C106.06 13.6903 106.669 13.8337 107.358 13.8337C107.931 13.8337 108.454 13.7333 108.928 13.5326C109.415 13.3319 109.831 13.0307 110.175 12.6293L111.423 13.8982C110.935 14.4718 110.333 14.9091 109.616 15.2102C108.913 15.5114 108.161 15.6619 107.358 15.6619Z" fill="black"/>
<path d="M96.5931 15.6424V0.950272H98.5289V15.6424H96.5931ZM94.0767 6.99409V5.23041H101.045V6.99409H94.0767Z" fill="black"/>
<path d="M91.3023 15.6619C90.9008 15.6619 90.5639 15.5257 90.2914 15.2533C90.0333 14.9665 89.9043 14.6295 89.9043 14.2424C89.9043 13.8409 90.0333 13.5111 90.2914 13.253C90.5639 12.9806 90.9008 12.8443 91.3023 12.8443C91.7038 12.8443 92.0336 12.9806 92.2917 13.253C92.5642 13.5111 92.7004 13.8409 92.7004 14.2424C92.7004 14.6295 92.5642 14.9665 92.2917 15.2533C92.0336 15.5257 91.7038 15.6619 91.3023 15.6619Z" fill="black"/>
</svg>
